HIERARCHY
ROOT Hips
{
  OFFSET 0 0 0
  CHANNELS 6 Xposition Yposition Zposition Zrotation Yrotation Xrotation
  JOINT LeftThigh
  {
    OFFSET 8.409438 0 -5.917753
    CHANNELS 3 Zrotation Yrotation Xrotation
    JOINT LeftLeg
    {
      OFFSET 0 0 -42.358652
      CHANNELS 3 Zrotation Yrotation Xrotation
      JOINT LeftFoot
      {
        OFFSET 0 0 -39.357303
        CHANNELS 3 Zrotation Yrotation Xrotation
      }
    }
  }
  JOINT RightThigh
  {
    OFFSET -8.409438 0 -5.917753
    CHANNELS 3 Zrotation Yrotation Xrotation
    JOINT RightLeg
    {
      OFFSET 0 0 -42.358652
      CHANNELS 3 Zrotation Yrotation Xrotation
      JOINT RightFoot
      {
        OFFSET 0 0 -39.357303
        CHANNELS 3 Zrotation Yrotation Xrotation
      }
    }
  }
  JOINT SpineLow
  {
    OFFSET 0 0 4.719101
    CHANNELS 3 Zrotation Yrotation Xrotation
    JOINT SpineMid
    {
      OFFSET 0 0 12.899191
      CHANNELS 3 Zrotation Yrotation Xrotation
      JOINT Chest
      {
        OFFSET 0 0 12.899191
        CHANNELS 3 Zrotation Yrotation Xrotation
        JOINT LeftShoulder
        {
          OFFSET 7.550562 1.41573 9.438202
          CHANNELS 3 Zrotation Yrotation Xrotation
          JOINT LeftArm
          {
            OFFSET 9.155056 0 4.247191
            CHANNELS 3 Zrotation Yrotation Xrotation
            JOINT LeftForearm
            {
              OFFSET 0 0 25.771955
              CHANNELS 3 Zrotation Yrotation Xrotation
              JOINT LeftHand
              {
                OFFSET 0 0 25.197169
                CHANNELS 3 Zrotation Yrotation Xrotation
              }
            }
          }
        }
        JOINT RightShoulder
        {
          OFFSET -7.550562 1.41573 9.438202
          CHANNELS 3 Zrotation Yrotation Xrotation
          JOINT RightArm
          {
            OFFSET -9.155056 0 4.247191
            CHANNELS 3 Zrotation Yrotation Xrotation
            JOINT RightForearm
            {
              OFFSET 0 0 -25.771955
              CHANNELS 3 Zrotation Yrotation Xrotation
              JOINT RightHand
              {
                OFFSET 0 0 -25.197169
                CHANNELS 3 Zrotation Yrotation Xrotation
              }
            }
          }
        }
        JOINT Neck
        {
          OFFSET 0 0 15.101124
          CHANNELS 3 Zrotation Yrotation Xrotation
          JOINT Head
          {
            OFFSET 0 0 11.325843
            CHANNELS 3 Zrotation Yrotation Xrotation
            End Site
            {
              OFFSET 0 0 14.157303
            }
          }
        }
      }
    }
  }
}
MOTION
Frames: 13
Frame Time: 0.0
0.0  93.25843  0.0  -3.010555  -29.331609  -88.388744  23.177338  -16.673958  7.886313  8.147096  -0.461037  3.734514  2.686216  0.413146  -0.353798  2.50199  0.416239  -16.192072  -0.099873  9.691352  11.728392  1.901024  0.970509  -0.84975  -2.291909  -1.345719  -0.0046  -6.270409  -3.675021  0.115109  -6.270409  -3.675021  0.115109  -17.547062  27.217848  -1.956765  127.327333  56.127795  -164.960901  10.894641  -11.83775  56.587373  78.085184  -14.323612  10.865251  -8.136169  3.331269  19.240782  54.179001  20.516862  38.400329  -39.786994  17.944183  -115.366301  91.174015  3.710586  2.235576  17.914443  0.891702  4.977208  13.429375  0.815641  3.710468  
0.0  93.25843  0.0  -2.938714  -29.368017  -88.789585  23.35481  -17.35291  7.63185  7.790566  0.007527  4.852106  2.585679  0.389497  -0.400947  2.479375  0.204114  -16.035152  0.096028  10.058543  12.541545  2.017436  1.00829  -0.900603  -2.341311  -1.343599  0.008526  -6.40628  -3.667806  0.153526  -6.40628  -3.667807  0.153526  -17.271702  27.571303  -1.967398  127.332322  55.789254  -164.986269  10.258196  -11.731524  55.937155  78.286364  -14.993042  10.552515  -7.759814  3.399227  19.306421  54.964737  20.43365  37.693037  -42.087012  16.350941  -115.470797  92.255719  4.702283  -1.056636  18.244733  0.92191  5.257  13.676548  0.849425  3.91928  
0.0  93.25843  0.0  -2.838811  -29.107182  -89.234854  23.765942  -17.930498  7.449863  7.33321  0.388521  6.000805  2.403834  0.359277  -0.470633  2.169099  0.041726  -15.839829  0.503918  10.35158  13.447773  2.265827  1.076476  -0.987768  -2.378717  -1.332654  0.024803  -6.50941  -3.636179  0.199002  -6.509411  -3.636179  0.199002  -17.244241  27.834588  -1.963671  127.631147  55.419086  -164.731277  9.511638  -11.845316  55.791991  78.358196  -15.163239  10.132343  -7.423896  3.280458  19.45047  55.402281  20.543548  36.871543  -42.268927  16.326456  -115.786919  92.718848  4.780934  -2.246078  18.31823  0.970923  5.457599  13.730997  0.892897  4.068328  
0.0  93.25843  0.0  -2.827083  -28.769612  -89.782875  24.552716  -18.830226  7.413551  6.794074  0.887654  7.198957  2.107182  0.312564  -0.558298  1.571586  -0.183818  -15.600721  0.779901  10.556903  14.366593  2.880479  1.17922  -0.993612  -2.42119  -1.336543  0.062579  -6.627729  -3.642822  0.304967  -6.627729  -3.642822  0.304967  -16.979643  28.143268  -1.962951  128.003728  54.932462  -164.35479  8.738868  -11.89616  55.631805  78.553355  -15.434156  9.411062  -6.931547  3.10442  19.673577  55.676725  20.859393  35.987134  -42.176992  16.237963  -115.983466  90.025824  1.224368  4.594792  18.544941  1.047585  5.753445  13.899945  0.961518  4.287851  
0.0  93.25843  0.0  -2.788601  -28.13117  -90.326213  24.973004  -19.564383  7.10015  6.236748  1.240898  8.501525  1.842305  0.262847  -0.575162  1.040235  -0.274247  -15.333487  1.205855  10.721102  15.448137  2.983943  1.282738  -1.040915  -2.461498  -1.33175  0.107309  -6.740394  -3.624929  0.428926  -6.740394  -3.624929  0.428926  -16.821871  28.397958  -2.064298  128.618495  54.35571  -163.829058  7.924075  -11.808503  55.533669  78.881307  -15.795779  8.445557  -6.499137  2.875873  19.951699  55.873719  21.331279  34.979772  -42.097538  16.196958  -116.098097  90.37748  1.463443  3.787108  18.476884  1.121073  5.897339  13.847963  1.020412  4.393726  
0.0  93.25843  0.0  -2.845287  -27.393834  -90.910449  25.531374  -20.431646  6.710695  5.631125  1.523674  9.834301  1.553594  0.236664  -0.526123  0.557828  -0.409191  -14.983042  1.300255  11.121752  16.461148  3.422638  1.373425  -1.016156  -2.491995  -1.347682  0.166742  -6.827331  -3.662043  0.594657  -6.827331  -3.662043  0.594657  -16.42915  28.761082  -2.031425  129.542826  53.833792  -162.964486  7.064513  -11.467785  55.566152  79.277103  -16.124783  7.410536  -6.053795  2.743086  20.262022  56.155972  21.839773  33.953741  -42.232703  16.276542  -116.180462  90.580564  1.789118  3.272035  18.559451  1.212287  6.168072  13.908548  1.09796  4.594084  
0.0  93.25843  0.0  -2.827857  -26.497934  -91.56657  26.247998  -21.285406  6.299615  4.871268  1.753817  11.123733  1.114052  0.165653  -0.599081  -0.124735  -0.447638  -14.507771  1.299291  11.415003  17.508831  3.272183  1.560451  -1.118012  -2.494494  -1.341662  0.229983  -6.837529  -3.639038  0.766982  -6.837528  -3.639038  0.766981  -16.174471  29.004596  -1.83459  131.208931  53.378766  -161.533008  6.173174  -10.866303  55.775776  79.524974  -16.338705  6.41282  -5.659827  2.520049  20.680109  56.455835  22.426032  32.861933  -42.622961  16.44529  -116.245988  90.732744  2.050904  2.929516  18.242772  1.235736  6.26348  13.67062  1.115179  4.665464  
0.0  93.25843  0.0  -2.813606  -25.658961  -92.299972  27.585309  -22.190237  5.9573  4.013553  1.891808  12.431683  0.501206  0.068978  -0.798061  -1.0023  -0.402349  -14.039185  1.051162  11.828027  18.526275  2.978991  1.530468  -1.221648  -2.521393  -1.384335  0.293377  -6.915515  -3.748541  0.946196  -6.915515  -3.748541  0.946196  -15.394838  29.62356  -1.511033  133.364286  52.942882  -159.736337  5.277778  -9.991498  56.181961  79.569127  -16.449681  5.524722  -4.727465  2.533627  21.249042  56.648792  23.128561  31.752373  -43.136699  16.598491  -116.329701  90.927258  2.14344  2.518002  18.247804  1.380022  6.559042  13.672285  1.232426  4.882993  
0.0  93.25843  0.0  -2.70589  -24.421156  -93.032378  28.755624  -22.973833  5.650374  2.7432  1.997731  13.320937  -0.049105  -0.007876  -0.911102  -1.96275  -0.120656  -13.572266  0.629446  12.209631  19.560569  3.166686  1.628948  -1.287818  -2.508938  -1.380484  0.341565  -6.88405  -3.733202  1.076766  -6.88405  -3.733203  1.076766  -14.996689  29.988865  -0.983126  136.122747  52.428496  -157.544475  4.394401  -8.873622  56.818161  79.536479  -16.4111  4.852442  -4.060417  2.18843  21.880877  56.573475  23.91868  30.638053  -43.506466  16.651726  -116.441038  91.17657  2.168899  1.820269  17.733183  1.411334  6.663372  13.285736  1.253364  4.96127  
0.0  93.25843  0.0  -2.744914  -23.705611  -94.070854  30.298544  -24.094009  5.728005  1.464698  2.080829  13.984468  -0.515394  -0.048769  -0.972469  -2.447291  -0.152571  -12.567694  -0.519844  12.559328  20.298408  3.826809  1.956577  -1.378727  -2.393545  -1.393518  0.467995  -6.575772  -3.758241  1.417133  -6.575772  -3.758241  1.417133  -14.480258  30.356761  -0.397297  139.039454  51.770116  -155.269491  3.571663  -7.631771  57.682144  79.506272  -16.252476  4.381126  -3.226238  1.76806  22.45768  56.288361  24.807716  29.458641  -43.527427  16.468675  -116.508644  91.544805  2.158877  0.839074  17.228294  1.475892  6.753623  12.906098  1.298798  5.028062  
0.0  93.25843  0.0  -2.631445  -22.060785  -94.787886  30.594905  -24.65072  5.620985  0.460335  2.144398  14.639467  -0.992229  -0.106021  -1.01511  -4.0665  -0.152356  -11.870948  -0.161552  13.077917  21.204162  3.902735  2.110134  -1.486042  -2.383335  -1.400707  0.530803  -6.551591  -3.771861  1.588936  -6.551591  -3.771861  1.588936  -13.953297  30.734135  0.149705  141.766733  50.866758  -153.193793  2.851357  -6.444817  58.687074  79.670142  -16.080047  4.006339  -2.2902  1.492689  23.117593  55.866933  25.916842  28.027907  -43.222911  16.069761  -116.484415  91.803229  2.177664  -0.230349  16.513724  1.576622  6.769798  12.368877  1.366844  5.03878  
0.0  93.25843  0.0  -2.535096  -20.318361  -95.436144  30.35152  -25.172196  5.464506  -0.236548  2.330564  15.399618  -1.355351  -0.15323  -0.982426  -5.596157  -0.135717  -11.254731  0.40746  13.449999  22.291153  3.972081  2.476141  -1.641401  -2.370691  -1.418099  0.587733  -6.52079  -3.814032  1.745568  -6.52079  -3.814033  1.745568  -13.294794  31.085284  0.631911  143.933777  49.771243  -151.646337  2.204142  -5.376412  59.840836  80.098205  -15.967234  3.609113  -1.182671  1.171175  23.588004  55.468941  27.168221  26.745374  -42.850007  15.715327  -116.367962  91.839777  2.34105  -1.002462  15.697806  1.740795  6.780671  11.754878  1.481192  5.044333  
0.0  93.25843  0.0  -2.418129  -18.408695  -95.95883  29.621094  -25.670459  5.192208  -0.778747  2.732931  16.20322  -1.712704  -0.142432  -0.975812  -7.150197  0.038235  -10.916148  0.520054  13.926773  23.314049  3.863447  2.75657  -1.761446  -2.317313  -1.415798  0.634837  -6.377349  -3.804678  1.871038  -6.37735  -3.804678  1.871038  -12.743478  31.214522  1.089114  145.37426  48.612502  -150.758461  1.638938  -4.497149  61.262785  80.603442  -15.886352  3.125781  -0.291989  0.738555  23.970553  55.22748  28.713305  25.568207  -42.751122  15.584312  -116.217885  91.678702  2.728979  -1.365312  14.579271  1.778831  6.716182  10.915611  1.495606  4.997658  
